# xmcd
#
# Track frame offsets: 
#        150
#        21162
#        42066
#        61118
#        83153
#        97054
#        115496
#        132579
#        150190
#        165698
#        185726
#        205520
#        234419
#        251467
#        268778
#        282880
#        297583
#        313559
#
# Disc length: 4526 seconds
#
# Revision: 0
# Processed by: cddbd v1.5.1PL2 Copyright (c) Steve Scherf et al.
# Submitted via: ExactAudioCopy v0.95a5
#
DISCID=fb11ac12
DTITLE=Lofgren, Nils - I Came To Dance - CD1
DYEAR=1900
DGENRE=Acid
TTITLE0=I Come To Dance
TTITLE1=Rock Me At Home
TTITLE2=Home Is Where The Hurt Is
TTITLE3=Code Of The Road
TTITLE4=Happy Ending Kids
TTITLE5=Goin' South
TTITLE6=To Be A Dreamer
TTITLE7=Jealous Gun
TTITLE8=Happy
TTITLE9=No Mercy
TTITLE10=I'll Cry Tomorrow
TTITLE11=Baltimore
TTITLE12=Shine Silently
TTITLE13=Steal Away
TTITLE14=Kool Skool
TTITLE15=A Fool Like Me
TTITLE16=I Found Her
TTITLE17=You're So Easy
EXTD=
EXTT0=
EXTT1=
EXTT2=
EXTT3=
EXTT4=
EXTT5=
EXTT6=
EXTT7=
EXTT8=
EXTT9=
EXTT10=
EXTT11=
EXTT12=
EXTT13=
EXTT14=
EXTT15=
EXTT16=
EXTT17=
PLAYORDER=
